<?xml version="1.0" encoding="utf-8"?>
<!-- Generator: Adobe Illustrator 27.9.4, SVG Export Plug-In . SVG Version: 9.03 Build 54784)  -->
<svg version="1.1" id="Layer_1" xmlns="http://www.w3.org/2000/svg" xmlns:xlink="http://www.w3.org/1999/xlink" x="0px" y="0px"
	 viewBox="0 0 1829.41 756.56" style="enable-background:new 0 0 1829.41 756.56;" xml:space="preserve">
<g>
	<g>
		<path d="M1530.89,480.36c4.7,1.26,7.38,1.97,7.38,1.97s-3.52-0.98-8.66-2.39c-58.1-18.6-94.03-36.49-144.85-50.92
			c-25.62-7.28-96.24-37.97-107.82-43.41c-5.41-2.54-29.3-24.88-44.79-23.91c-6.08,0.38-23.96,7.32-30.69,11.06
			c-4.51,2.51-20.53,12.5-34.43,18.25c-13.1,5.41-26.59,11.18-33.02,13.95c-6.61-5.05-12.74-9.64-16.74-12.43
			c-11.61-8.29-37.6-25.99-49.21-32.62c-1.52-0.87-3.25-1.88-5.1-2.99c-9.19-5.84-17.9-11.28-24.69-15.36
			c-0.84-0.54-1.68-1.08-2.5-1.61c-21.57-14.54-68.99-63.06-82.71-59.66c-6.08-0.55-14.93,3.32-23.22,8.29
			c-8.29,4.98-27.09,9.95-32.62,12.72c-5.53,2.76-27.09,22.12-32.07,24.88c-4.98,2.76-39.26,23.78-47,27.65
			c-7.74,3.87-61.93,32.62-70.22,38.15c0,0-5.25,2.13-12.51,3.68c-1.03-0.05-2.11-0.08-3.39,0.05c-3.25,0.32-5.98,1.08-10.25,1.53
			c-12.26,0.11-17.4-3-39.5-14.52c-22.68-11.83-51.56-20.87-64.84-15.62c-3.87,0.55-56.4,24.33-60.27,26.54
			c-3.87,2.21-26.17,16.8-46.9,23.78c-10.78,3.63-27.75,6.64-27.75,6.64s16.72,0.28,28.47-3.32c0.47-0.14,1.08-0.35,1.78-0.61
			c5.9-0.94,14.25-2.95,24.81-7.25c18.54-7.55,53.09-27.91,77.42-35.26c0.93-0.25,1.75-0.44,2.42-0.56c9.4-1.66,13.82-1.66,18.8,0
			c2.3,0.77,12.66,5.68,24.33,11.01c0,0,0,0,0.01,0c10.78,4.91,25.03,15.66,29.16,20.5c2.46,2.87,7.94,6.28,10.46,8.4
			c-5.53,2.74-10.21,5.13-12.2,6.39c-6.22,3.94-55.64,23.08-55.64,23.08s4.17-1.15,10.81-3.15l0,0h0
			c14.72-4.43,41.59-13.04,62.17-22.56c0.9-0.42,1.77-0.83,2.65-1.24c14.01-5.45,27.54-11,37.31-15.62
			c31.52-14.93,72.28-38.04,80.58-43.96c3.62-2.22,8.28-5.08,13.39-8.22c16.79-9.86,42.59-24.44,47.44-28.69
			c6.63-5.81,30.27-16.17,30.27-16.17s24.63-11.41,35.41-7.26c10.78,4.15,24.3,18.87,44.21,34.63
			c19.9,15.76,44.37,26.54,63.45,38.98c19.08,12.44,42.56,25.77,51.84,29.44c8.53,3.38,18.75,8.37,28.06,13.21
			c13.36,9.35,21.28,11.47,27.08,14.86c2.94,1.72,0.34-0.16-4-3.15c-5.84-4.6-17.16-13.48-27.61-21.49
			c8.87-1.33,28.85-5.62,59.46-19.28c3.84-0.2,26.1-12.03,31.07-11.56c4.96,0.47,16.02,5.22,26.39,12.91
			c8.26,6.13,35.75,17.3,39.26,18.8c8.85,3.77,17.17,7.19,25,10.29c10.01,4.37,21.33,9.14,34.21,14.35
			C1383.88,444.91,1535.13,481.93,1530.89,480.36z"/>
		<path d="M526.79,404.67c0,0-7.47-8.27-15.21-6.61c-7.74,1.66-29.32,9.05-43.96,13.48c-16.45,4.97-70.5,29.65-92.06,37.11
			c-21.56,7.46-98.69,31.76-98.69,31.76s79.89-17.39,92.61-21.81c12.72-4.42,88.75-35.69,102.02-39.01
			c13.27-3.32,22.86-4.85,29.97-6.39C514.23,410.44,526.79,404.67,526.79,404.67z"/>
	</g>
</g>
</svg>
