<?xml version="1.0" encoding="utf-8"?>
<!-- Generator: Adobe Illustrator 27.9.4, SVG Export Plug-In . SVG Version: 9.03 Build 54784)  -->
<svg version="1.1" id="Layer_1" xmlns="http://www.w3.org/2000/svg" xmlns:xlink="http://www.w3.org/1999/xlink" x="0px" y="0px"
	 viewBox="0 0 1680 1260" style="enable-background:new 0 0 2048 2048;" xml:space="preserve">
<g fill="#FFFFFF">
	<g>
		<g>
			<g>
				<g>
					<path d="M572.45,1145.96v-29.43h13.05c6.36,0,9.89,4.15,9.89,9.04c0,4.9-3.58,9.04-9.89,9.04h-8.41v11.34H572.45z
						 M584.89,1120.42h-7.8v10.32h7.8c3.34,0,5.71-2.07,5.71-5.16C590.6,1122.49,588.23,1120.42,584.89,1120.42z"/>
				</g>
				<g>
					<path d="M618.75,1145.96v-29.43h20.8v3.88h-16.16v8.6h15.84v3.88h-15.84v9.18h16.16v3.88H618.75z"/>
				</g>
				<g>
					<path d="M681.77,1145.96l-7.38-11.34h-5.8v11.34h-4.64v-29.43h13.05c5.9,0,9.94,3.62,9.94,9.04c0,5.29-3.76,8.12-7.71,8.6
						l7.94,11.78H681.77z M676.38,1120.42h-7.8v10.32h7.8c3.34,0,5.76-2.07,5.76-5.16C682.14,1122.49,679.73,1120.42,676.38,1120.42
						z"/>
				</g>
				<g>
					<path d="M711.22,1145.96v-29.43h20.8v3.88h-16.16v8.6h15.84v3.88h-15.84v13.06H711.22z"/>
				</g>
				<g>
					<path d="M769.92,1116.05c9.24,0,15.6,6.48,15.6,15.22c0,8.73-6.36,15.22-15.6,15.22c-9.24,0-15.6-6.48-15.6-15.22
						C754.32,1122.54,760.68,1116.05,769.92,1116.05z M769.92,1119.98c-6.64,0-10.82,4.81-10.82,11.29
						c0,6.44,4.18,11.29,10.82,11.29c6.55,0,10.82-4.85,10.82-11.29C780.74,1124.79,776.47,1119.98,769.92,1119.98z"/>
				</g>
				<g>
					<path d="M827.56,1145.96l-7.38-11.34h-5.8v11.34h-4.64v-29.43h13.05c5.9,0,9.94,3.62,9.94,9.04c0,5.29-3.76,8.12-7.71,8.6
						l7.94,11.78H827.56z M822.17,1120.42h-7.8v10.32h7.8c3.34,0,5.76-2.07,5.76-5.16C827.93,1122.49,825.51,1120.42,822.17,1120.42
						z"/>
				</g>
				<g>
					<path d="M883.66,1145.96v-23.38l-10.03,23.38h-1.95l-10.03-23.38v23.38H857v-29.43h6.64l9.01,21.13l9.01-21.13h6.64v29.43
						H883.66z"/>
				</g>
				<g>
					<path d="M935.86,1145.96l-2.51-6.09h-15.19l-2.51,6.09h-5.11l12.31-29.43h5.8l12.31,29.43H935.86z M925.74,1120.38l-6.22,15.57
						h12.49L925.74,1120.38z"/>
				</g>
				<g>
					<path d="M985.04,1145.96l-17.14-22.59v22.59h-4.64v-29.43h4.78l16.86,22.06v-22.06h4.64v29.43H985.04z"/>
				</g>
				<g>
					<path d="M1013.7,1131.27c0-9.04,7.06-15.22,15.88-15.22c6.08,0,9.89,2.78,12.31,6.22l-3.95,1.99
						c-1.63-2.47-4.69-4.28-8.36-4.28c-6.27,0-11.1,4.68-11.1,11.29c0,6.57,4.83,11.29,11.1,11.29c3.67,0,6.73-1.81,8.36-4.28
						l3.95,1.99c-2.46,3.44-6.22,6.22-12.31,6.22C1020.76,1146.49,1013.7,1140.32,1013.7,1131.27z"/>
				</g>
				<g>
					<path d="M1065.11,1145.96v-29.43h20.8v3.88h-16.16v8.6h15.84v3.88h-15.84v9.18h16.16v3.88H1065.11z"/>
				</g>
				<g>
					<path d="M1167.52,1145.96v-23.38l-10.03,23.38h-1.95l-10.03-23.38v23.38h-4.64v-29.43h6.64l9.01,21.13l9.01-21.13h6.64v29.43
						H1167.52z"/>
				</g>
				<g>
					<path d="M1197.62,1145.96v-29.43h20.8v3.88h-16.16v8.6h15.84v3.88h-15.84v9.18h16.16v3.88H1197.62z"/>
				</g>
				<g>
					<path d="M1242.8,1145.96v-29.43h11.05c9.66,0,16.07,6.27,16.07,14.74c0,8.51-6.41,14.69-16.07,14.69H1242.8z M1247.45,1142.08
						h6.41c7.15,0,11.28-4.85,11.28-10.81c0-6.04-3.99-10.85-11.28-10.85h-6.41V1142.08z"/>
				</g>
				<g>
					<path d="M1294.12,1145.96v-29.43h4.64v29.43H1294.12z"/>
				</g>
				<g>
					<path d="M1322.97,1131.27c0-9.04,7.06-15.22,15.88-15.22c6.08,0,9.89,2.78,12.31,6.22l-3.95,1.99
						c-1.63-2.47-4.69-4.28-8.36-4.28c-6.27,0-11.1,4.68-11.1,11.29c0,6.57,4.83,11.29,11.1,11.29c3.67,0,6.73-1.81,8.36-4.28
						l3.95,1.99c-2.46,3.44-6.22,6.22-12.31,6.22C1330.02,1146.49,1322.97,1140.32,1322.97,1131.27z"/>
				</g>
				<g>
					<path d="M1374.38,1145.96v-29.43h4.64v29.43H1374.38z"/>
				</g>
				<g>
					<path d="M1426.3,1145.96l-17.14-22.59v22.59h-4.64v-29.43h4.78l16.86,22.06v-22.06h4.64v29.43H1426.3z"/>
				</g>
				<g>
					<path d="M1456.26,1145.96v-29.43h20.8v3.88h-16.16v8.6h15.84v3.88h-15.84v9.18h16.16v3.88H1456.26z"/>
				</g>
			</g>
			<g>
				<line x1="1520.93" y1="1132.77" x2="1592.62" y2="1132.77"/>
				<rect x="1520.93" y="1130.83" width="71.69" height="3.87"/>
			</g>
			<g>
				<line x1="455.38" y1="1131.75" x2="527.07" y2="1131.75"/>
				<rect x="455.38" y="1129.81" width="71.69" height="3.87"/>
			</g>
		</g>
		<g>
			<g>
				<path d="M498.39,1058.65l-17.81-27.34h-14v27.34h-11.2v-70.97h31.47c14.22,0,23.97,8.72,23.97,21.81
					c0,12.77-9.07,19.58-18.59,20.75l19.15,28.41H498.39z M485.4,997.04h-18.82v24.9h18.82c8.06,0,13.89-5,13.89-12.45
					S493.46,997.04,485.4,997.04z"/>
			</g>
			<g>
				<path d="M580.6,1058.65v-70.97h11.2v70.97H580.6z"/>
			</g>
			<g>
				<path d="M664.48,1058.65v-70.97h26.66c23.3,0,38.75,15.11,38.75,35.54c0,20.54-15.46,35.43-38.75,35.43H664.48z M675.68,1049.29
					h15.46c17.25,0,27.22-11.7,27.22-26.07c0-14.58-9.63-26.17-27.22-26.17h-15.46V1049.29z"/>
			</g>
			<g>
				<path d="M835.06,986.51c14,0,23.3,6.06,29.57,14.04l-9.07,5c-4.26-5.43-11.76-9.58-20.5-9.58c-15.57,0-27.22,11.28-27.22,27.24
					c0,15.85,11.65,27.34,27.22,27.34c8.29,0,15.34-3.83,18.93-7.02v-12.77h-23.97v-9.36h35.17v26.07
					c-7.17,7.55-17.47,12.56-30.13,12.56c-21.39,0-38.75-14.68-38.75-36.81C796.31,1001.09,813.67,986.51,835.06,986.51z"/>
			</g>
			<g>
				<path d="M935.52,1058.65v-70.97h50.18v9.36h-38.98v20.75h38.19v9.36h-38.19v22.13h38.98v9.36H935.52z"/>
			</g>
			<g>
				<path d="M1055.7,1058.65v-70.97h31.47c15.34,0,23.86,10,23.86,21.81s-8.62,21.81-23.86,21.81h-20.27v27.34H1055.7z
					 M1085.71,997.04h-18.82v24.9h18.82c8.06,0,13.78-5,13.78-12.45S1093.78,997.04,1085.71,997.04z"/>
			</g>
			<g>
				<path d="M1213.06,986.51c22.29,0,37.63,15.64,37.63,36.71c0,21.07-15.34,36.71-37.63,36.71c-22.29,0-37.63-15.64-37.63-36.71
					C1175.42,1002.15,1190.77,986.51,1213.06,986.51z M1213.06,995.98c-16.02,0-26.1,11.6-26.1,27.24
					c0,15.53,10.08,27.24,26.1,27.24c15.79,0,26.1-11.7,26.1-27.24C1239.15,1007.58,1228.85,995.98,1213.06,995.98z"/>
			</g>
			<g>
				<path d="M1320.24,1058.65v-70.97h11.2v70.97H1320.24z"/>
			</g>
			<g>
				<path d="M1456.65,1058.65l-41.33-54.48v54.48h-11.2v-70.97h11.54l40.66,53.2v-53.2h11.2v70.97H1456.65z"/>
			</g>
			<g>
				<path d="M1558.35,1058.65v-61.61h-23.18v-9.36h57.46v9.36h-23.07v61.61H1558.35z"/>
			</g>
		</g>
	</g>
	<g>
		<path d="M1424.36,918.06c3.03,0.81,4.75,1.27,4.75,1.27s-2.27-0.63-5.58-1.54c-37.43-11.98-60.57-23.5-93.32-32.8
			c-16.51-4.69-62-24.46-69.46-27.97c-3.49-1.64-18.88-16.03-28.85-15.41c-3.92,0.25-15.44,4.72-19.77,7.12
			c-2.91,1.61-13.22,8.06-22.18,11.75c-8.44,3.49-17.13,7.2-21.27,8.99c-4.26-3.25-8.21-6.21-10.78-8.01
			c-7.48-5.34-24.22-16.74-31.7-21.02c-0.98-0.56-2.09-1.21-3.29-1.92c-5.92-3.76-11.53-7.26-15.9-9.89
			c-0.54-0.35-1.08-0.69-1.61-1.04c-13.9-9.36-44.45-40.63-53.28-38.44c-3.92-0.36-9.62,2.14-14.96,5.34
			c-5.34,3.21-17.45,6.41-21.02,8.19c-3.56,1.78-17.45,14.25-20.66,16.03c-3.21,1.78-25.29,15.32-30.28,17.81
			c-4.99,2.49-39.89,21.02-45.24,24.58c0,0-3.38,1.37-8.06,2.37c-0.66-0.03-1.36-0.05-2.18,0.03c-2.09,0.21-3.85,0.69-6.61,0.99
			c-7.9,0.07-11.21-1.93-25.45-9.36c-14.61-7.62-33.21-13.45-41.77-10.06c-2.49,0.36-36.33,15.67-38.83,17.1
			c-2.49,1.42-16.86,10.82-30.21,15.32c-6.95,2.34-17.87,4.27-17.87,4.27s10.77,0.18,18.34-2.14c0.3-0.09,0.69-0.23,1.15-0.39
			c3.8-0.6,9.18-1.9,15.99-4.67c11.95-4.87,34.2-17.98,49.88-22.71c0.6-0.16,1.13-0.29,1.56-0.36c6.06-1.07,8.9-1.07,12.11,0
			c1.48,0.49,8.16,3.66,15.68,7.1c0,0,0,0,0,0c6.95,3.16,16.12,10.09,18.79,13.21c1.58,1.85,5.12,4.04,6.74,5.41
			c-3.56,1.77-6.58,3.3-7.86,4.11c-4.01,2.54-35.84,14.87-35.84,14.87s2.69-0.74,6.97-2.03l0,0h0c9.48-2.85,26.8-8.4,40.05-14.53
			c0.58-0.27,1.14-0.53,1.71-0.8c9.03-3.51,17.74-7.08,24.03-10.07c20.3-9.62,46.57-24.51,51.91-28.32c2.33-1.43,5.33-3.27,8.63-5.3
			c10.81-6.35,27.44-15.75,30.56-18.48c4.27-3.74,19.5-10.42,19.5-10.42s15.87-7.35,22.81-4.68c6.95,2.67,15.66,12.16,28.48,22.31
			c12.82,10.15,28.58,17.09,40.87,25.11c12.29,8.02,27.42,16.6,33.39,18.97c5.5,2.18,12.08,5.39,18.08,8.51
			c8.61,6.03,13.71,7.39,17.45,9.57c1.89,1.11,0.22-0.1-2.58-2.03c-3.76-2.96-11.05-8.68-17.79-13.84
			c5.72-0.86,18.59-3.62,38.3-12.42c2.47-0.13,16.82-7.75,20.01-7.45c3.2,0.3,10.32,3.36,17,8.32c5.32,3.95,23.03,11.15,25.29,12.11
			c5.7,2.43,11.06,4.63,16.11,6.63c6.45,2.81,13.74,5.89,22.04,9.24C1329.66,895.22,1427.1,919.07,1424.36,918.06z"/>
		<path d="M777.51,869.29c0,0-4.81-5.32-9.8-4.26c-4.99,1.07-18.89,5.83-28.32,8.68c-10.6,3.2-45.41,19.1-59.31,23.91
			c-13.89,4.81-63.58,20.46-63.58,20.46s51.47-11.2,59.66-14.05c8.19-2.85,57.17-22.99,65.72-25.13c8.55-2.14,14.73-3.13,19.31-4.12
			C769.41,873.01,777.51,869.29,777.51,869.29z"/>
	</g>
</g>
</svg>
