<?xml version="1.0" encoding="utf-8"?>
<!-- Generator: Adobe Illustrator 27.9.4, SVG Export Plug-In . SVG Version: 9.03 Build 54784)  -->
<svg version="1.1" id="Layer_1" xmlns="http://www.w3.org/2000/svg" xmlns:xlink="http://www.w3.org/1999/xlink" x="0px" y="0px"
	 viewBox="0 0 2048 2048" style="enable-background:new 0 0 2048 2048;" xml:space="preserve">
<style type="text/css">
	.st0{fill:#010101;}
</style>
<g>
	<g>
		<g>
			<g>
				<g>
					<path class="st0" d="M527.98,1040.67v-32.32h14.33c6.99,0,10.87,4.56,10.87,9.94c0,5.38-3.93,9.93-10.87,9.93h-9.23v12.45
						H527.98z M541.65,1012.61h-8.57v11.34h8.57c3.67,0,6.27-2.28,6.27-5.67C547.93,1014.89,545.32,1012.61,541.65,1012.61z"/>
				</g>
				<g>
					<path class="st0" d="M578.84,1040.67v-32.32h22.85v4.27h-17.75v9.45h17.39v4.26h-17.39v10.08h17.75v4.27H578.84z"/>
				</g>
				<g>
					<path class="st0" d="M648.07,1040.67l-8.11-12.45h-6.38v12.45h-5.1v-32.32h14.33c6.48,0,10.92,3.97,10.92,9.94
						c0,5.81-4.13,8.92-8.47,9.45l8.72,12.94H648.07z M642.15,1012.61h-8.57v11.34h8.57c3.67,0,6.33-2.28,6.33-5.67
						C648.48,1014.89,645.83,1012.61,642.15,1012.61z"/>
				</g>
				<g>
					<path class="st0" d="M680.42,1040.67v-32.32h22.85v4.27h-17.75v9.45h17.39v4.26h-17.39v14.34H680.42z"/>
				</g>
				<g>
					<path class="st0" d="M744.9,1007.81c10.15,0,17.14,7.12,17.14,16.72c0,9.59-6.99,16.72-17.14,16.72
						c-10.15,0-17.14-7.12-17.14-16.72C727.76,1014.94,734.75,1007.81,744.9,1007.81z M744.9,1012.13
						c-7.29,0-11.89,5.28-11.89,12.41c0,7.07,4.59,12.41,11.89,12.41c7.19,0,11.89-5.33,11.89-12.41
						C756.79,1017.41,752.09,1012.13,744.9,1012.13z"/>
				</g>
				<g>
					<path class="st0" d="M808.21,1040.67l-8.11-12.45h-6.38v12.45h-5.1v-32.32h14.33c6.48,0,10.92,3.97,10.92,9.94
						c0,5.81-4.13,8.92-8.47,9.45l8.72,12.94H808.21z M802.29,1012.61h-8.57v11.34h8.57c3.67,0,6.33-2.28,6.33-5.67
						C808.62,1014.89,805.97,1012.61,802.29,1012.61z"/>
				</g>
				<g>
					<path class="st0" d="M869.84,1040.67v-25.68l-11.02,25.68h-2.14l-11.02-25.68v25.68h-5.1v-32.32h7.29l9.9,23.21l9.9-23.21h7.29
						v32.32H869.84z"/>
				</g>
				<g>
					<path class="st0" d="M927.18,1040.67l-2.75-6.69h-16.68l-2.75,6.69h-5.61l13.52-32.32h6.38l13.52,32.32H927.18z
						 M916.06,1012.56l-6.84,17.11h13.72L916.06,1012.56z"/>
				</g>
				<g>
					<path class="st0" d="M981.21,1040.67l-18.82-24.81v24.81h-5.1v-32.32h5.25l18.52,24.23v-24.23h5.1v32.32H981.21z"/>
				</g>
				<g>
					<path class="st0" d="M1012.69,1024.53c0-9.94,7.75-16.72,17.45-16.72c6.68,0,10.87,3.05,13.52,6.83l-4.34,2.18
						c-1.79-2.71-5.15-4.7-9.18-4.7c-6.89,0-12.19,5.14-12.19,12.41c0,7.22,5.3,12.41,12.19,12.41c4.03,0,7.4-1.99,9.18-4.7
						l4.34,2.18c-2.7,3.78-6.84,6.83-13.52,6.83C1020.44,1041.25,1012.69,1034.47,1012.69,1024.53z"/>
				</g>
				<g>
					<path class="st0" d="M1069.16,1040.67v-32.32h22.85v4.27h-17.75v9.45h17.39v4.26h-17.39v10.08h17.75v4.27H1069.16z"/>
				</g>
				<g>
					<path class="st0" d="M1181.65,1040.67v-25.68l-11.02,25.68h-2.14l-11.02-25.68v25.68h-5.1v-32.32h7.29l9.9,23.21l9.9-23.21
						h7.29v32.32H1181.65z"/>
				</g>
				<g>
					<path class="st0" d="M1214.71,1040.67v-32.32h22.85v4.27h-17.75v9.45h17.39v4.26h-17.39v10.08h17.75v4.27H1214.71z"/>
				</g>
				<g>
					<path class="st0" d="M1264.35,1040.67v-32.32h12.14c10.61,0,17.65,6.88,17.65,16.19c0,9.35-7.04,16.14-17.65,16.14H1264.35z
						 M1269.45,1036.4h7.04c7.86,0,12.4-5.33,12.4-11.87c0-6.64-4.39-11.92-12.4-11.92h-7.04V1036.4z"/>
				</g>
				<g>
					<path class="st0" d="M1320.72,1040.67v-32.32h5.1v32.32H1320.72z"/>
				</g>
				<g>
					<path class="st0" d="M1352.41,1024.53c0-9.94,7.75-16.72,17.44-16.72c6.68,0,10.87,3.05,13.52,6.83l-4.34,2.18
						c-1.79-2.71-5.15-4.7-9.18-4.7c-6.89,0-12.19,5.14-12.19,12.41c0,7.22,5.3,12.41,12.19,12.41c4.03,0,7.4-1.99,9.18-4.7
						l4.34,2.18c-2.7,3.78-6.84,6.83-13.52,6.83C1360.16,1041.25,1352.41,1034.47,1352.41,1024.53z"/>
				</g>
				<g>
					<path class="st0" d="M1408.88,1040.67v-32.32h5.1v32.32H1408.88z"/>
				</g>
				<g>
					<path class="st0" d="M1465.91,1040.67l-18.82-24.81v24.81h-5.1v-32.32h5.25l18.52,24.23v-24.23h5.1v32.32H1465.91z"/>
				</g>
				<g>
					<path class="st0" d="M1498.82,1040.67v-32.32h22.85v4.27h-17.75v9.45h17.39v4.26h-17.39v10.08h17.75v4.27H1498.82z"/>
				</g>
			</g>
			<g>
				<line class="st0" x1="1569.87" y1="1026.17" x2="1648.61" y2="1026.17"/>
				<rect x="1569.87" y="1024.04" class="st0" width="78.74" height="4.25"/>
			</g>
			<g>
				<line class="st0" x1="399.39" y1="1025.05" x2="478.13" y2="1025.05"/>
				<rect x="399.39" y="1022.93" class="st0" width="78.74" height="4.25"/>
			</g>
		</g>
		<g>
			<g>
				<path class="st0" d="M446.63,944.76l-19.56-30.04h-15.38v30.04h-12.3V866.8h34.57c15.62,0,26.33,9.58,26.33,23.96
					c0,14.02-9.97,21.5-20.42,22.79l21.04,31.21H446.63z M432.36,877.08h-20.67v27.35h20.67c8.86,0,15.26-5.49,15.26-13.67
					C447.61,882.58,441.22,877.08,432.36,877.08z"/>
			</g>
			<g>
				<path class="st0" d="M536.93,944.76V866.8h12.3v77.96H536.93z"/>
			</g>
			<g>
				<path class="st0" d="M629.08,944.76V866.8h29.28c25.59,0,42.57,16.6,42.57,39.04c0,22.56-16.98,38.92-42.57,38.92H629.08z
					 M641.38,934.47h16.98c18.95,0,29.9-12.86,29.9-28.63c0-16.01-10.58-28.75-29.9-28.75h-16.98V934.47z"/>
			</g>
			<g>
				<path class="st0" d="M816.45,865.51c15.38,0,25.59,6.66,32.48,15.43l-9.97,5.49c-4.68-5.96-12.92-10.52-22.51-10.52
					c-17.1,0-29.9,12.39-29.9,29.92c0,17.41,12.79,30.04,29.9,30.04c9.1,0,16.85-4.21,20.79-7.71v-14.02h-26.33v-10.29h38.63v28.63
					c-7.87,8.3-19.19,13.79-33.09,13.79c-23.5,0-42.57-16.13-42.57-40.44C773.88,881.53,792.95,865.51,816.45,865.51z"/>
			</g>
			<g>
				<path class="st0" d="M926.81,944.76V866.8h55.12v10.28h-42.81v22.79h41.95v10.29h-41.95v24.31h42.81v10.29H926.81z"/>
			</g>
			<g>
				<path class="st0" d="M1058.82,944.76V866.8h34.57c16.85,0,26.2,10.99,26.2,23.96c0,12.97-9.47,23.96-26.2,23.96h-22.27v30.04
					H1058.82z M1091.79,877.08h-20.67v27.35h20.67c8.86,0,15.13-5.49,15.13-13.67C1106.92,882.58,1100.65,877.08,1091.79,877.08z"/>
			</g>
			<g>
				<path class="st0" d="M1231.67,865.51c24.48,0,41.34,17.18,41.34,40.32s-16.86,40.32-41.34,40.32
					c-24.48,0-41.34-17.18-41.34-40.32S1207.19,865.51,1231.67,865.51z M1231.67,875.92c-17.59,0-28.67,12.74-28.67,29.92
					c0,17.06,11.07,29.92,28.67,29.92c17.35,0,28.67-12.86,28.67-29.92C1260.34,888.66,1249.02,875.92,1231.67,875.92z"/>
			</g>
			<g>
				<path class="st0" d="M1349.41,944.76V866.8h12.3v77.96H1349.41z"/>
			</g>
			<g>
				<path class="st0" d="M1499.26,944.76l-45.4-59.84v59.84h-12.3V866.8h12.67l44.66,58.44V866.8h12.3v77.96H1499.26z"/>
			</g>
			<g>
				<path class="st0" d="M1610.97,944.76v-67.67h-25.47V866.8h63.11v10.28h-25.34v67.67H1610.97z"/>
			</g>
		</g>
	</g>
</g>
</svg>
