<?xml version="1.0" encoding="utf-8"?>
<!-- Generator: Adobe Illustrator 27.9.4, SVG Export Plug-In . SVG Version: 9.03 Build 54784)  -->
<svg version="1.1" id="Layer_1" xmlns="http://www.w3.org/2000/svg" xmlns:xlink="http://www.w3.org/1999/xlink" x="0px" y="0px"
	 viewBox="0 0 2048 2048" style="enable-background:new 0 0 2048 2048;" xml:space="preserve">
<style type="text/css">
	.st0{fill:#010101;}
</style>
<g>
	<g>
		<g>
			<g>
				<g>
					<path class="st0" d="M642.66,1345.83v-26.81h11.89c5.8,0,9.01,3.78,9.01,8.24c0,4.46-3.26,8.24-9.01,8.24h-7.66v10.33H642.66z
						 M654,1322.56h-7.11v9.41H654c3.05,0,5.2-1.89,5.2-4.7C659.21,1324.44,657.05,1322.56,654,1322.56z"/>
				</g>
				<g>
					<path class="st0" d="M684.85,1345.83v-26.81h18.96v3.54h-14.72v7.84h14.43v3.54h-14.43v8.36h14.72v3.54H684.85z"/>
				</g>
				<g>
					<path class="st0" d="M742.28,1345.83l-6.73-10.33h-5.29v10.33h-4.23v-26.81h11.89c5.37,0,9.06,3.3,9.06,8.24
						c0,4.82-3.43,7.4-7.02,7.84l7.24,10.73H742.28z M737.37,1322.56h-7.11v9.41h7.11c3.05,0,5.25-1.89,5.25-4.7
						C742.62,1324.44,740.42,1322.56,737.37,1322.56z"/>
				</g>
				<g>
					<path class="st0" d="M769.11,1345.83v-26.81h18.96v3.54h-14.72v7.84h14.43v3.54h-14.43v11.9H769.11z"/>
				</g>
				<g>
					<path class="st0" d="M822.6,1318.58c8.42,0,14.22,5.91,14.22,13.87c0,7.96-5.8,13.87-14.22,13.87s-14.22-5.91-14.22-13.87
						C808.38,1324.48,814.18,1318.58,822.6,1318.58z M822.6,1322.15c-6.05,0-9.86,4.38-9.86,10.29c0,5.87,3.81,10.29,9.86,10.29
						c5.97,0,9.86-4.42,9.86-10.29C832.46,1326.53,828.56,1322.15,822.6,1322.15z"/>
				</g>
				<g>
					<path class="st0" d="M875.11,1345.83l-6.73-10.33h-5.29v10.33h-4.23v-26.81h11.89c5.37,0,9.05,3.3,9.05,8.24
						c0,4.82-3.43,7.4-7.02,7.84l7.24,10.73H875.11z M870.21,1322.56h-7.11v9.41h7.11c3.05,0,5.25-1.89,5.25-4.7
						C875.45,1324.44,873.25,1322.56,870.21,1322.56z"/>
				</g>
				<g>
					<path class="st0" d="M926.23,1345.83v-21.3l-9.14,21.3h-1.78l-9.14-21.3v21.3h-4.23v-26.81H908l8.21,19.25l8.21-19.25h6.05
						v26.81H926.23z"/>
				</g>
				<g>
					<path class="st0" d="M973.8,1345.83l-2.28-5.55h-13.84l-2.28,5.55h-4.65l11.21-26.81h5.29l11.21,26.81H973.8z M964.58,1322.52
						l-5.67,14.19h11.38L964.58,1322.52z"/>
				</g>
				<g>
					<path class="st0" d="M1018.61,1345.83l-15.61-20.58v20.58h-4.23v-26.81h4.36l15.36,20.1v-20.1h4.23v26.81H1018.61z"/>
				</g>
				<g>
					<path class="st0" d="M1044.73,1332.44c0-8.24,6.43-13.87,14.47-13.87c5.54,0,9.01,2.53,11.21,5.67l-3.6,1.81
						c-1.48-2.25-4.27-3.9-7.62-3.9c-5.71,0-10.11,4.26-10.11,10.29c0,5.99,4.4,10.29,10.11,10.29c3.34,0,6.14-1.65,7.62-3.9
						l3.6,1.81c-2.24,3.14-5.67,5.67-11.21,5.67C1051.16,1346.31,1044.73,1340.68,1044.73,1332.44z"/>
				</g>
				<g>
					<path class="st0" d="M1091.57,1345.83v-26.81h18.96v3.54h-14.72v7.84h14.43v3.54h-14.43v8.36h14.72v3.54H1091.57z"/>
				</g>
				<g>
					<path class="st0" d="M1184.88,1345.83v-21.3l-9.14,21.3h-1.78l-9.14-21.3v21.3h-4.23v-26.81h6.05l8.21,19.25l8.21-19.25h6.05
						v26.81H1184.88z"/>
				</g>
				<g>
					<path class="st0" d="M1212.31,1345.83v-26.81h18.96v3.54h-14.72v7.84h14.43v3.54h-14.43v8.36h14.72v3.54H1212.31z"/>
				</g>
				<g>
					<path class="st0" d="M1253.48,1345.83v-26.81h10.07c8.8,0,14.64,5.71,14.64,13.43c0,7.76-5.84,13.39-14.64,13.39H1253.48z
						 M1257.71,1342.29h5.84c6.52,0,10.28-4.42,10.28-9.85c0-5.51-3.64-9.89-10.28-9.89h-5.84V1342.29z"/>
				</g>
				<g>
					<path class="st0" d="M1300.24,1345.83v-26.81h4.23v26.81H1300.24z"/>
				</g>
				<g>
					<path class="st0" d="M1326.52,1332.44c0-8.24,6.43-13.87,14.47-13.87c5.54,0,9.01,2.53,11.21,5.67l-3.6,1.81
						c-1.48-2.25-4.27-3.9-7.62-3.9c-5.71,0-10.11,4.26-10.11,10.29c0,5.99,4.4,10.29,10.11,10.29c3.34,0,6.14-1.65,7.62-3.9
						l3.6,1.81c-2.24,3.14-5.67,5.67-11.21,5.67C1332.95,1346.31,1326.52,1340.68,1326.52,1332.44z"/>
				</g>
				<g>
					<path class="st0" d="M1373.37,1345.83v-26.81h4.23v26.81H1373.37z"/>
				</g>
				<g>
					<path class="st0" d="M1420.68,1345.83l-15.61-20.58v20.58h-4.23v-26.81h4.36l15.36,20.1v-20.1h4.23v26.81H1420.68z"/>
				</g>
				<g>
					<path class="st0" d="M1447.97,1345.83v-26.81h18.96v3.54h-14.72v7.84h14.43v3.54h-14.43v8.36h14.72v3.54H1447.97z"/>
				</g>
			</g>
			<g>
				<line class="st0" x1="1506.91" y1="1333.8" x2="1572.22" y2="1333.8"/>
				<rect x="1506.91" y="1332.04" class="st0" width="65.32" height="3.53"/>
			</g>
			<g>
				<line class="st0" x1="536" y1="1332.88" x2="601.32" y2="1332.88"/>
				<rect x="536" y="1331.11" class="st0" width="65.32" height="3.53"/>
			</g>
		</g>
		<g>
			<g>
				<g>
					<path class="st0" d="M620.14,984.91l-34.84-53.5h-27.39v53.5H536V846.06h61.57c27.83,0,46.89,17.07,46.89,42.67
						c0,24.98-17.75,38.3-36.37,40.59l37.47,55.58H620.14z M594.72,864.38h-36.81v48.71h36.81c15.78,0,27.17-9.78,27.17-24.35
						S610.5,864.38,594.72,864.38z"/>
				</g>
				<g>
					<path class="st0" d="M780.97,984.91V846.06h21.91v138.84H780.97z"/>
				</g>
				<g>
					<path class="st0" d="M945.09,984.91V846.06h52.15c45.58,0,75.82,29.56,75.82,69.53c0,40.18-30.24,69.32-75.82,69.32H945.09z
						 M967,966.59h30.24c33.74,0,53.25-22.9,53.25-51c0-28.52-18.84-51.21-53.25-51.21H967V966.59z"/>
				</g>
				<g>
					<path class="st0" d="M1278.81,843.77c27.39,0,45.58,11.86,57.85,27.48l-17.75,9.78c-8.33-10.62-23.01-18.74-40.1-18.74
						c-30.46,0-53.25,22.07-53.25,53.29c0,31.02,22.79,53.5,53.25,53.5c16.21,0,30.02-7.49,37.03-13.74v-24.98h-46.89v-18.32h68.8
						v51c-14.02,14.78-34.18,24.56-58.94,24.56c-41.85,0-75.82-28.73-75.82-72.02S1236.96,843.77,1278.81,843.77z"/>
				</g>
				<g>
					<path class="st0" d="M1475.36,984.91V846.06h98.17v18.32h-76.25v40.59h74.72v18.32h-74.72v43.3h76.25v18.32H1475.36z"/>
				</g>
			</g>
			<g>
				<g>
					<path class="st0" d="M533.84,1205.13v-137.01h60.76c29.62,0,46.05,19.31,46.05,42.11s-16.65,42.11-46.05,42.11h-39.14v52.79
						H533.84z M591.78,1086.2h-36.32v48.07h36.32c15.57,0,26.6-9.65,26.6-24.03S607.35,1086.2,591.78,1086.2z"/>
				</g>
				<g>
					<path class="st0" d="M837.63,1065.86c43.03,0,72.65,30.2,72.65,70.87c0,40.67-29.62,70.87-72.65,70.87
						c-43.03,0-72.65-30.2-72.65-70.87C764.98,1096.06,794.6,1065.86,837.63,1065.86z M837.63,1084.15
						c-30.92,0-50.38,22.39-50.38,52.59c0,29.99,19.46,52.59,50.38,52.59c30.49,0,50.38-22.6,50.38-52.59
						C888.01,1106.54,868.12,1084.15,837.63,1084.15z"/>
				</g>
				<g>
					<path class="st0" d="M1044.56,1205.13v-137.01h21.62v137.01H1044.56z"/>
				</g>
				<g>
					<path class="st0" d="M1307.91,1205.13l-79.79-105.17v105.17h-21.62v-137.01h22.27l78.49,102.71v-102.71h21.62v137.01H1307.91z"
						/>
				</g>
				<g>
					<path class="st0" d="M1504.24,1205.13V1086.2h-44.76v-18.07h110.92v18.07h-44.54v118.93H1504.24z"/>
				</g>
			</g>
		</g>
	</g>
	<g>
		<path class="st0" d="M1564.36,750.09c3.85,1.03,6.05,1.62,6.05,1.62s-2.89-0.8-7.1-1.96c-47.65-15.25-77.11-29.92-118.79-41.76
			c-21.01-5.97-78.92-31.14-88.42-35.6c-4.44-2.09-24.03-20.41-36.73-19.61c-4.99,0.31-19.65,6.01-25.16,9.07
			c-3.7,2.06-16.83,10.25-28.23,14.96c-10.74,4.44-21.8,9.17-27.08,11.44c-5.42-4.14-10.45-7.91-13.73-10.19
			c-9.52-6.8-30.83-21.31-40.35-26.75c-1.25-0.71-2.66-1.54-4.18-2.45c-7.54-4.79-14.67-9.25-20.24-12.6
			c-0.69-0.44-1.37-0.88-2.05-1.32c-17.69-11.92-56.58-51.72-67.83-48.93c-4.99-0.45-12.24,2.72-19.04,6.8
			c-6.8,4.08-22.22,8.16-26.75,10.43c-4.53,2.27-22.22,18.14-26.3,20.4c-4.08,2.27-32.19,19.5-38.54,22.67
			c-6.35,3.17-50.78,26.75-57.58,31.29c0,0-4.3,1.75-10.26,3.02c-0.84-0.04-1.73-0.06-2.78,0.04c-2.66,0.27-4.91,0.88-8.41,1.26
			c-10.05,0.09-14.27-2.46-32.39-11.91c-18.6-9.7-42.28-17.12-53.17-12.81c-3.17,0.45-46.25,19.95-49.42,21.76
			c-3.17,1.81-21.46,13.78-38.46,19.5c-8.84,2.98-22.75,5.44-22.75,5.44s13.71,0.23,23.35-2.72c0.39-0.12,0.88-0.29,1.46-0.5
			c4.84-0.77,11.68-2.42,20.35-5.95c15.21-6.2,43.54-22.88,63.49-28.91c0.76-0.2,1.44-0.36,1.98-0.46c7.71-1.36,11.34-1.36,15.42,0
			c1.89,0.63,10.39,4.66,19.95,9.03c0,0,0,0,0.01,0c8.84,4.02,20.52,12.84,23.92,16.81c2.02,2.36,6.51,5.15,8.58,6.89
			c-4.53,2.25-8.37,4.2-10.01,5.24c-5.1,3.23-45.63,18.93-45.63,18.93s3.42-0.94,8.87-2.58l0,0h0c12.07-3.63,34.11-10.69,50.98-18.5
			c0.74-0.34,1.45-0.68,2.17-1.02c11.49-4.47,22.58-9.02,30.59-12.81c25.84-12.24,59.28-31.19,66.08-36.05
			c2.96-1.82,6.79-4.17,10.98-6.74c13.77-8.08,34.93-20.04,38.9-23.52c5.44-4.76,24.82-13.26,24.82-13.26s20.2-9.36,29.04-5.96
			c8.84,3.4,19.93,15.48,36.25,28.4c16.32,12.92,36.39,21.76,52.03,31.97c15.64,10.21,34.9,21.13,42.51,24.14
			c7,2.77,15.38,6.86,23.01,10.83c10.96,7.67,17.45,9.41,22.21,12.18c2.41,1.41,0.28-0.13-3.28-2.59
			c-4.79-3.77-14.07-11.05-22.64-17.62c7.28-1.09,23.66-4.61,48.76-15.81c3.15-0.16,21.41-9.86,25.47-9.48
			c4.07,0.38,13.14,4.28,21.64,10.59c6.77,5.03,29.32,14.19,32.19,15.42c7.25,3.09,14.08,5.89,20.5,8.44
			c8.2,3.58,17.49,7.49,28.06,11.77C1443.8,721.02,1567.84,751.38,1564.36,750.09z"/>
		<path class="st0" d="M740.94,688.01c0,0-6.12-6.78-12.47-5.42c-6.35,1.36-24.04,7.42-36.05,11.05
			c-13.49,4.08-57.81,24.31-75.49,30.44C599.25,730.2,536,750.13,536,750.13s65.52-14.26,75.94-17.89
			c10.43-3.63,72.78-29.27,83.66-31.99c10.88-2.72,18.75-3.98,24.58-5.24C730.64,692.74,740.94,688.01,740.94,688.01z"/>
	</g>
</g>
</svg>
